<svg xmlns="http://www.w3.org/2000/svg" width="12000" height="1000" viewBox="0 0 12000 1000" style="background:white"><g transform="translate(4350, 50)"><path d="M0,0C0,75,0,75,0,150" fill="none" stroke="#444" stroke-width="1.5"></path><path d="M0,150C0,225,-1800,225,-1800,300" fill="none" stroke="#444" stroke-width="1.5"></path><path d="M0,150C0,225,1800,225,1800,300" fill="none" stroke="#444" stroke-width="1.5"></path><path d="M-1800,300C-1800,375,-2700,375,-2700,450" fill="none" stroke="#444" stroke-width="1.5"></path><path d="M-1800,300C-1800,375,-900,375,-900,450" fill="none" stroke="#444" stroke-width="1.5"></path><path d="M1800,300C1800,375,900,375,900,450" fill="none" stroke="#444" stroke-width="1.5"></path><path d="M1800,300C1800,375,2700,375,2700,450" fill="none" stroke="#444" stroke-width="1.5"></path><path d="M-2700,450C-2700,525,-3300,525,-3300,600" fill="none" stroke="#444" stroke-width="1.5"></path><path d="M-2700,450C-2700,525,-2700,525,-2700,600" fill="none" stroke="#444" stroke-width="1.5"></path><path d="M-2700,450C-2700,525,-2100,525,-2100,600" fill="none" stroke="#444" stroke-width="1.5"></path><path d="M-900,450C-900,525,-1500,525,-1500,600" fill="none" stroke="#444" stroke-width="1.5"></path><path d="M-900,450C-900,525,-900,525,-900,600" fill="none" stroke="#444" stroke-width="1.5"></path><path d="M-900,450C-900,525,-300,525,-300,600" fill="none" stroke="#444" stroke-width="1.5"></path><path d="M900,450C900,525,300,525,300,600" fill="none" stroke="#444" stroke-width="1.5"></path><path d="M900,450C900,525,900,525,900,600" fill="none" stroke="#444" stroke-width="1.5"></path><path d="M900,450C900,525,1500,525,1500,600" fill="none" stroke="#444" stroke-width="1.5"></path><path d="M2700,450C2700,525,2100,525,2100,600" fill="none" stroke="#444" stroke-width="1.5"></path><path d="M2700,450C2700,525,2700,525,2700,600" fill="none" stroke="#444" stroke-width="1.5"></path><path d="M2700,450C2700,525,3300,525,3300,600" fill="none" stroke="#444" stroke-width="1.5"></path><path d="M-3300,600C-3300,675,-3300,675,-3300,750" fill="none" stroke="#444" stroke-width="1.5"></path><path d="M-2700,600C-2700,675,-2700,675,-2700,750" fill="none" stroke="#444" stroke-width="1.5"></path><path d="M-2100,600C-2100,675,-2100,675,-2100,750" fill="none" stroke="#444" stroke-width="1.5"></path><path d="M-1500,600C-1500,675,-1500,675,-1500,750" fill="none" stroke="#444" stroke-width="1.5"></path><path d="M-900,600C-900,675,-900,675,-900,750" fill="none" stroke="#444" stroke-width="1.5"></path><path d="M-300,600C-300,675,-300,675,-300,750" fill="none" stroke="#444" stroke-width="1.5"></path><path d="M300,600C300,675,300,675,300,750" fill="none" stroke="#444" stroke-width="1.5"></path><path d="M900,600C900,675,900,675,900,750" fill="none" stroke="#444" stroke-width="1.5"></path><path d="M1500,600C1500,675,1500,675,1500,750" fill="none" stroke="#444" stroke-width="1.5"></path><path d="M2100,600C2100,675,2100,675,2100,750" fill="none" stroke="#444" stroke-width="1.5"></path><path d="M2700,600C2700,675,2700,675,2700,750" fill="none" stroke="#444" stroke-width="1.5"></path><path d="M3300,600C3300,675,3300,675,3300,750" fill="none" stroke="#444" stroke-width="1.5"></path><g transform="translate(-80,-30)"><rect width="250" height="60" rx="10" fill="#e3f2fd" stroke="#1976d2"></rect><text x="125" y="35" text-anchor="middle" font-family="Arial" font-size="16">Indian Army</text></g><g transform="translate(-80,120)"><rect width="250" height="60" rx="10" fill="#e3f2fd" stroke="#1976d2"></rect><text x="125" y="35" text-anchor="middle" font-family="Arial" font-size="16">Field Marshal</text></g><g transform="translate(-1880,270)"><rect width="250" height="60" rx="10" fill="#e3f2fd" stroke="#1976d2"></rect><text x="125" y="35" text-anchor="middle" font-family="Arial" font-size="16">General</text></g><g transform="translate(1720,270)"><rect width="250" height="60" rx="10" fill="#e3f2fd" stroke="#1976d2"></rect><text x="125" y="35" text-anchor="middle" font-family="Arial" font-size="16">General</text></g><g transform="translate(-2780,420)"><rect width="250" height="60" rx="10" fill="#e3f2fd" stroke="#1976d2"></rect><text x="125" y="35" text-anchor="middle" font-family="Arial" font-size="16">Lieutenant general</text></g><g transform="translate(-980,420)"><rect width="250" height="60" rx="10" fill="#e3f2fd" stroke="#1976d2"></rect><text x="125" y="35" text-anchor="middle" font-family="Arial" font-size="16">Lieutenant general</text></g><g transform="translate(820,420)"><rect width="250" height="60" rx="10" fill="#e3f2fd" stroke="#1976d2"></rect><text x="125" y="35" text-anchor="middle" font-family="Arial" font-size="16">Lieutenant general</text></g><g transform="translate(2620,420)"><rect width="250" height="60" rx="10" fill="#e3f2fd" stroke="#1976d2"></rect><text x="125" y="35" text-anchor="middle" font-family="Arial" font-size="16">Lieutenant general</text></g><g transform="translate(-3380,570)"><rect width="250" height="60" rx="10" fill="#e3f2fd" stroke="#1976d2"></rect><text x="125" y="35" text-anchor="middle" font-family="Arial" font-size="16">Major general</text></g><g transform="translate(-2780,570)"><rect width="250" height="60" rx="10" fill="#e3f2fd" stroke="#1976d2"></rect><text x="125" y="35" text-anchor="middle" font-family="Arial" font-size="16">Major general</text></g><g transform="translate(-2180,570)"><rect width="250" height="60" rx="10" fill="#e3f2fd" stroke="#1976d2"></rect><text x="125" y="35" text-anchor="middle" font-family="Arial" font-size="16">Major general</text></g><g transform="translate(-1580,570)"><rect width="250" height="60" rx="10" fill="#e3f2fd" stroke="#1976d2"></rect><text x="125" y="35" text-anchor="middle" font-family="Arial" font-size="16">Major general</text></g><g transform="translate(-980,570)"><rect width="250" height="60" rx="10" fill="#e3f2fd" stroke="#1976d2"></rect><text x="125" y="35" text-anchor="middle" font-family="Arial" font-size="16">Major general</text></g><g transform="translate(-380,570)"><rect width="250" height="60" rx="10" fill="#e3f2fd" stroke="#1976d2"></rect><text x="125" y="35" text-anchor="middle" font-family="Arial" font-size="16">Major general</text></g><g transform="translate(220,570)"><rect width="250" height="60" rx="10" fill="#e3f2fd" stroke="#1976d2"></rect><text x="125" y="35" text-anchor="middle" font-family="Arial" font-size="16">Major general</text></g><g transform="translate(820,570)"><rect width="250" height="60" rx="10" fill="#e3f2fd" stroke="#1976d2"></rect><text x="125" y="35" text-anchor="middle" font-family="Arial" font-size="16">Major general</text></g><g transform="translate(1420,570)"><rect width="250" height="60" rx="10" fill="#e3f2fd" stroke="#1976d2"></rect><text x="125" y="35" text-anchor="middle" font-family="Arial" font-size="16">Major general</text></g><g transform="translate(2020,570)"><rect width="250" height="60" rx="10" fill="#e3f2fd" stroke="#1976d2"></rect><text x="125" y="35" text-anchor="middle" font-family="Arial" font-size="16">Major general</text></g><g transform="translate(2620,570)"><rect width="250" height="60" rx="10" fill="#e3f2fd" stroke="#1976d2"></rect><text x="125" y="35" text-anchor="middle" font-family="Arial" font-size="16">Major general</text></g><g transform="translate(3220,570)"><rect width="250" height="60" rx="10" fill="#e3f2fd" stroke="#1976d2"></rect><text x="125" y="35" text-anchor="middle" font-family="Arial" font-size="16">Major general</text></g><g transform="translate(-3380,720)"><rect width="250" height="60" rx="10" fill="#e3f2fd" stroke="#1976d2"></rect><text x="125" y="35" text-anchor="middle" font-family="Arial" font-size="16">Brigadier</text></g><g transform="translate(-2780,720)"><rect width="250" height="60" rx="10" fill="#e3f2fd" stroke="#1976d2"></rect><text x="125" y="35" text-anchor="middle" font-family="Arial" font-size="16">Brigadier</text></g><g transform="translate(-2180,720)"><rect width="250" height="60" rx="10" fill="#e3f2fd" stroke="#1976d2"></rect><text x="125" y="35" text-anchor="middle" font-family="Arial" font-size="16">Brigadier</text></g><g transform="translate(-1580,720)"><rect width="250" height="60" rx="10" fill="#e3f2fd" stroke="#1976d2"></rect><text x="125" y="35" text-anchor="middle" font-family="Arial" font-size="16">Brigadier</text></g><g transform="translate(-980,720)"><rect width="250" height="60" rx="10" fill="#e3f2fd" stroke="#1976d2"></rect><text x="125" y="35" text-anchor="middle" font-family="Arial" font-size="16">Brigadier</text></g><g transform="translate(-380,720)"><rect width="250" height="60" rx="10" fill="#e3f2fd" stroke="#1976d2"></rect><text x="125" y="35" text-anchor="middle" font-family="Arial" font-size="16">Brigadier</text></g><g transform="translate(220,720)"><rect width="250" height="60" rx="10" fill="#e3f2fd" stroke="#1976d2"></rect><text x="125" y="35" text-anchor="middle" font-family="Arial" font-size="16">Brigadier</text></g><g transform="translate(820,720)"><rect width="250" height="60" rx="10" fill="#e3f2fd" stroke="#1976d2"></rect><text x="125" y="35" text-anchor="middle" font-family="Arial" font-size="16">Brigadier</text></g><g transform="translate(1420,720)"><rect width="250" height="60" rx="10" fill="#e3f2fd" stroke="#1976d2"></rect><text x="125" y="35" text-anchor="middle" font-family="Arial" font-size="16">Brigadier</text></g><g transform="translate(2020,720)"><rect width="250" height="60" rx="10" fill="#e3f2fd" stroke="#1976d2"></rect><text x="125" y="35" text-anchor="middle" font-family="Arial" font-size="16">Brigadier</text></g><g transform="translate(2620,720)"><rect width="250" height="60" rx="10" fill="#e3f2fd" stroke="#1976d2"></rect><text x="125" y="35" text-anchor="middle" font-family="Arial" font-size="16">Brigadier</text></g><g transform="translate(3220,720)"><rect width="250" height="60" rx="10" fill="#e3f2fd" stroke="#1976d2"></rect><text x="125" y="35" text-anchor="middle" font-family="Arial" font-size="16">Brigadier</text></g></g></svg>